<svg width="20" height="21" viewBox="0 0 20 21" fill="none" xmlns="http://www.w3.org/2000/svg">
<path fill-rule="evenodd" clip-rule="evenodd" d="M6.99995 2.16323C6.68169 2.16323 6.37647 2.28966 6.15142 2.5147C5.92638 2.73975 5.79995 3.04497 5.79995 3.36323V4.56323H14.2V3.36323C14.2 3.04497 14.0735 2.73975 13.8485 2.5147C13.6234 2.28966 13.3182 2.16323 13 2.16323H6.99995ZM15.8 4.67995V3.36323C15.8 2.62063 15.505 1.90843 14.9798 1.38333C14.4547 0.858232 13.7426 0.563232 13 0.563232H6.99995C6.25735 0.563232 5.54515 0.858231 5.02005 1.38333C4.49495 1.90844 4.19995 2.62063 4.19995 3.36323V4.67995C3.75831 4.81163 3.35183 5.05155 3.02005 5.38333C2.49495 5.90844 2.19995 6.62063 2.19995 7.36323V8.67995C1.75831 8.81163 1.35183 9.05155 1.02005 9.38333C0.49495 9.90844 0.199951 10.6206 0.199951 11.3632V17.3632C0.199951 18.1058 0.49495 18.818 1.02005 19.3431C1.54515 19.8682 2.25734 20.1632 2.99995 20.1632H17C17.7426 20.1632 18.4547 19.8682 18.9798 19.3431C19.5049 18.818 19.7999 18.1058 19.7999 17.3632V11.3632C19.7999 10.6206 19.5049 9.90844 18.9798 9.38333C18.6481 9.05155 18.2416 8.81163 17.7999 8.67994V7.36323C17.7999 6.62063 17.505 5.90844 16.9798 5.38333C16.6481 5.05155 16.2416 4.81163 15.8 4.67995ZM16.2 8.56323V7.36323C16.2 7.04497 16.0735 6.73975 15.8485 6.5147C15.6234 6.28966 15.3182 6.16323 15 6.16323H4.99995C4.68169 6.16323 4.37647 6.28966 4.15142 6.5147C3.92638 6.73975 3.79995 7.04497 3.79995 7.36323V8.56323H16.2ZM2.99995 10.1632C2.68169 10.1632 2.37647 10.2897 2.15142 10.5147C1.92638 10.7397 1.79995 11.045 1.79995 11.3632V17.3632C1.79995 17.6815 1.92638 17.9867 2.15142 18.2118C2.37647 18.4368 2.68169 18.5632 2.99995 18.5632H17C17.3182 18.5632 17.6234 18.4368 17.8485 18.2118C18.0735 17.9867 18.2 17.6815 18.2 17.3632V11.3632C18.2 11.045 18.0735 10.7397 17.8485 10.5147C17.6234 10.2897 17.3182 10.1632 17 10.1632H2.99995Z" fill="#6B6B6B"/>
</svg>
