<svg width="18" height="19" viewBox="0 0 18 19" fill="none" xmlns="http://www.w3.org/2000/svg">
<path d="M17 10.7632V3.76318C17 3.23275 16.7893 2.72404 16.4142 2.34897C16.0391 1.9739 15.5304 1.76318 15 1.76318H3C2.46957 1.76318 1.96086 1.9739 1.58579 2.34897C1.21071 2.72404 1 3.23275 1 3.76318V10.7632M17 10.7632V15.7632C17 16.2936 16.7893 16.8023 16.4142 17.1774C16.0391 17.5525 15.5304 17.7632 15 17.7632H3C2.46957 17.7632 1.96086 17.5525 1.58579 17.1774C1.21071 16.8023 1 16.2936 1 15.7632V10.7632M17 10.7632H14.414C14.1488 10.7632 13.8945 10.8686 13.707 11.0562L11.293 13.4702C11.1055 13.6577 10.8512 13.7631 10.586 13.7632H7.414C7.1488 13.7631 6.89449 13.6577 6.707 13.4702L4.293 11.0562C4.10551 10.8686 3.85119 10.7632 3.586 10.7632H1" stroke="#6B6B6B" stroke-width="1.7" stroke-linecap="round" stroke-linejoin="round"/>
</svg>
