<svg width="18" height="19" viewBox="0 0 18 19" fill="none" xmlns="http://www.w3.org/2000/svg">
<path fill-rule="evenodd" clip-rule="evenodd" d="M2.99995 0.420166C3.44178 0.420166 3.79995 0.778338 3.79995 1.22017V10.5369C4.24159 10.6686 4.64807 10.9085 4.97985 11.2403C5.50495 11.7654 5.79995 12.4776 5.79995 13.2202C5.79995 13.9628 5.50495 14.675 4.97985 15.2001C4.64807 15.5318 4.24159 15.7718 3.79995 15.9035V17.2202C3.79995 17.662 3.44178 18.0202 2.99995 18.0202C2.55812 18.0202 2.19995 17.662 2.19995 17.2202V15.9035C1.75831 15.7718 1.35183 15.5318 1.02005 15.2001C0.49495 14.675 0.199951 13.9628 0.199951 13.2202C0.199951 12.4776 0.49495 11.7654 1.02005 11.2403C1.35183 10.9085 1.75831 10.6686 2.19995 10.5369V1.22017C2.19995 0.778338 2.55812 0.420166 2.99995 0.420166ZM8.99995 0.420166C9.44178 0.420166 9.79995 0.778338 9.79995 1.22017V2.53688C10.2416 2.66857 10.6481 2.90848 10.9798 3.24027C11.505 3.76537 11.8 4.47756 11.8 5.22017C11.8 5.96277 11.505 6.67496 10.9798 7.20006C10.6481 7.53185 10.2416 7.77177 9.79995 7.90345V17.2202C9.79995 17.662 9.44178 18.0202 8.99995 18.0202C8.55812 18.0202 8.19995 17.662 8.19995 17.2202V7.90345C7.75831 7.77177 7.35183 7.53185 7.02005 7.20006C6.49495 6.67496 6.19995 5.96277 6.19995 5.22017C6.19995 4.47756 6.49495 3.76537 7.02005 3.24027C7.35184 2.90848 7.75831 2.66857 8.19995 2.53688V1.22017C8.19995 0.778338 8.55812 0.420166 8.99995 0.420166ZM15 0.420166C15.4418 0.420166 15.8 0.778338 15.8 1.22017V10.5369C16.2416 10.6686 16.6481 10.9085 16.9798 11.2403C17.5049 11.7654 17.7999 12.4776 17.7999 13.2202C17.7999 13.9628 17.5049 14.675 16.9798 15.2001C16.6481 15.5318 16.2416 15.7718 15.8 15.9035V17.2202C15.8 17.662 15.4418 18.0202 15 18.0202C14.5581 18.0202 14.2 17.662 14.2 17.2202V15.9035C13.7583 15.7718 13.3518 15.5318 13.0201 15.2001C12.495 14.675 12.2 13.9628 12.2 13.2202C12.2 12.4776 12.495 11.7654 13.0201 11.2403C13.3518 10.9085 13.7583 10.6686 14.2 10.5369V1.22017C14.2 0.778338 14.5581 0.420166 15 0.420166ZM8.99995 4.02017C8.68169 4.02017 8.37647 4.14659 8.15142 4.37164C7.92638 4.59668 7.79995 4.90191 7.79995 5.22017C7.79995 5.53843 7.92638 5.84365 8.15142 6.06869C8.37647 6.29374 8.68169 6.42017 8.99995 6.42017C9.31821 6.42017 9.62344 6.29374 9.84848 6.06869C10.0735 5.84365 10.2 5.53843 10.2 5.22017C10.2 4.90191 10.0735 4.59668 9.84848 4.37164C9.62344 4.14659 9.31821 4.02017 8.99995 4.02017ZM2.99995 12.0202C2.68169 12.0202 2.37647 12.1466 2.15142 12.3716C1.92638 12.5967 1.79995 12.9019 1.79995 13.2202C1.79995 13.5384 1.92638 13.8436 2.15142 14.0687C2.37647 14.2937 2.68169 14.4202 2.99995 14.4202C3.31821 14.4202 3.62344 14.2937 3.84848 14.0687C4.07352 13.8436 4.19995 13.5384 4.19995 13.2202C4.19995 12.9019 4.07352 12.5967 3.84848 12.3716C3.62344 12.1466 3.31821 12.0202 2.99995 12.0202ZM15 12.0202C14.6817 12.0202 14.3765 12.1466 14.1514 12.3716C13.9264 12.5967 13.8 12.9019 13.8 13.2202C13.8 13.5384 13.9264 13.8436 14.1514 14.0687C14.3765 14.2937 14.6817 14.4202 15 14.4202C15.3182 14.4202 15.6234 14.2937 15.8485 14.0687C16.0735 13.8436 16.2 13.5384 16.2 13.2202C16.2 12.9019 16.0735 12.5967 15.8485 12.3716C15.6234 12.1466 15.3182 12.0202 15 12.0202Z" fill="#6B6B6B"/>
</svg>
