<svg width="17" height="21" viewBox="0 0 17 21" fill="none" xmlns="http://www.w3.org/2000/svg">
<path d="M5.41699 10.5272H11.417H5.41699ZM5.41699 14.5272H11.417H5.41699ZM13.417 19.5272H3.41699C2.88656 19.5272 2.37785 19.3165 2.00278 18.9414C1.62771 18.5664 1.41699 18.0577 1.41699 17.5272V3.52722C1.41699 2.99679 1.62771 2.48808 2.00278 2.11301C2.37785 1.73794 2.88656 1.52722 3.41699 1.52722H9.00299C9.26819 1.52728 9.5225 1.63267 9.70999 1.82022L15.124 7.23422C15.3115 7.42171 15.4169 7.67603 15.417 7.94122V17.5272C15.417 18.0577 15.2063 18.5664 14.8312 18.9414C14.4561 19.3165 13.9474 19.5272 13.417 19.5272Z" stroke="#6B6B6B" stroke-width="1.7" stroke-linecap="round" stroke-linejoin="round"/>
</svg>
