<svg width="20" height="15" viewBox="0 0 20 15" fill="none" xmlns="http://www.w3.org/2000/svg">
<path d="M2.29929 0.309994L10.0036 0.327752L17.708 0.292236H17.7117C18.7475 0.292236 19.5693 1.21209 19.5693 2.36279V12.0017C19.5693 13.1524 18.7475 14.0722 17.7117 14.0722H2.28803C1.25228 14.0722 0.430435 13.1524 0.430435 12.0017V2.36279C0.430435 1.21209 1.24478 0.309994 2.29929 0.309994ZM2.90348 1.73061L9.78598 7.68656L9.81225 7.70787L9.83477 7.73273C9.91733 7.81797 10.0149 7.82862 10.0674 7.82862C10.12 7.82862 10.2175 7.81441 10.2964 7.72563L10.3189 7.70077L16.8974 1.7022L10.0036 1.74482L2.90348 1.73061ZM2.28803 12.6516H17.7117C17.8431 12.6516 18.0682 12.4172 18.0682 12.0017V2.59009L11.4034 8.68454C11.0657 9.0397 10.5891 9.24569 10.0824 9.25279H10.0599C9.56082 9.25279 9.09548 9.05746 8.75398 8.71651L1.92402 2.79963V12.0017C1.93153 12.4172 2.15669 12.6516 2.28803 12.6516Z" fill="#6B6B6B"/>
</svg>
