<svg width="92" height="100" viewBox="0 0 92 100" fill="none" xmlns="http://www.w3.org/2000/svg">
<g filter="url(#filter0_d_265_130)">
<path fill-rule="evenodd" clip-rule="evenodd" d="M34.6157 18.7431C37.7224 15.6364 41.9361 13.891 46.3297 13.891C50.7233 13.891 54.937 15.6364 58.0437 18.7431C61.1505 21.8499 62.8959 26.0635 62.8959 30.4572C62.8959 34.8508 61.1505 39.0644 58.0437 42.1712L46.3297 53.8852L34.6157 42.1712C33.0772 40.6329 31.8569 38.8067 31.0243 36.7968C30.1917 34.7869 29.7632 32.6327 29.7632 30.4572C29.7632 28.2816 30.1917 26.1274 31.0243 24.1175C31.8569 22.1076 33.0772 20.2814 34.6157 18.7431ZM46.3297 35.1901C47.585 35.1901 48.7888 34.6915 49.6764 33.8039C50.564 32.9163 51.0626 31.7124 51.0626 30.4572C51.0626 29.2019 50.564 27.9981 49.6764 27.1105C48.7888 26.2229 47.585 25.7242 46.3297 25.7242C45.0744 25.7242 43.8706 26.2229 42.983 27.1105C42.0954 27.9981 41.5967 29.2019 41.5967 30.4572C41.5967 31.7124 42.0954 32.9163 42.983 33.8039C43.8706 34.6915 45.0744 35.1901 46.3297 35.1901Z" fill="#FF6D6D"/>
<path d="M45.6226 54.5924L46.3297 55.2995L47.0368 54.5924L58.7509 42.8783C62.0451 39.584 63.8959 35.116 63.8959 30.4572C63.8959 25.7983 62.0451 21.3303 58.7509 18.036C55.4566 14.7417 50.9885 12.891 46.3297 12.891C41.6709 12.891 37.2029 14.7417 33.9086 18.036C32.2773 19.6671 30.9833 21.6035 30.1004 23.7348C29.2176 25.866 28.7632 28.1503 28.7632 30.4572C28.7632 32.764 29.2176 35.0483 30.1004 37.1795C30.9833 39.3108 32.2773 41.2472 33.9086 42.8783L45.6226 54.5924ZM48.9693 33.0967C48.2692 33.7968 47.3197 34.1901 46.3297 34.1901C45.3397 34.1901 44.3902 33.7968 43.6901 33.0967C42.99 32.3967 42.5967 31.4472 42.5967 30.4572C42.5967 29.4671 42.99 28.5176 43.6901 27.8176C44.3902 27.1175 45.3397 26.7242 46.3297 26.7242C47.3197 26.7242 48.2692 27.1175 48.9693 27.8176C49.6694 28.5176 50.0626 29.4671 50.0626 30.4572C50.0626 31.4472 49.6694 32.3967 48.9693 33.0967Z" stroke="#FDFDFD" stroke-width="2"/>
</g>
<defs>
<filter id="filter0_d_265_130" x="0.763184" y="0.890991" width="91.1327" height="98.8226" filterUnits="userSpaceOnUse" color-interpolation-filters="sRGB">
<feFlood flood-opacity="0" result="BackgroundImageFix"/>
<feColorMatrix in="SourceAlpha" type="matrix" values="0 0 0 0 0 0 0 0 0 0 0 0 0 0 0 0 0 0 127 0" result="hardAlpha"/>
<feOffset dy="16"/>
<feGaussianBlur stdDeviation="13.5"/>
<feComposite in2="hardAlpha" operator="out"/>
<feColorMatrix type="matrix" values="0 0 0 0 0 0 0 0 0 0 0 0 0 0 0 0 0 0 0.17 0"/>
<feBlend mode="normal" in2="BackgroundImageFix" result="effect1_dropShadow_265_130"/>
<feBlend mode="normal" in="SourceGraphic" in2="effect1_dropShadow_265_130" result="shape"/>
</filter>
</defs>
</svg>
