<svg width="65" height="67" viewBox="0 0 65 67" fill="none" xmlns="http://www.w3.org/2000/svg">
<g filter="url(#filter0_d_265_108)">
<path fill-rule="evenodd" clip-rule="evenodd" d="M28.9931 12.9259C29.908 12.011 31.1488 11.4971 32.4427 11.4971C33.7365 11.4971 34.9773 12.011 35.8922 12.9259C36.807 13.8408 37.321 15.0816 37.321 16.3754C37.321 17.6692 36.807 18.9101 35.8922 19.8249L32.4427 23.2744L28.9931 19.8249C28.5401 19.3719 28.1808 18.8342 27.9356 18.2423C27.6904 17.6504 27.5642 17.0161 27.5642 16.3754C27.5642 15.7348 27.6904 15.1004 27.9356 14.5085C28.1808 13.9167 28.5401 13.3789 28.9931 12.9259ZM32.4427 17.7692C32.8123 17.7692 33.1668 17.6223 33.4282 17.3609C33.6896 17.0996 33.8364 16.7451 33.8364 16.3754C33.8364 16.0058 33.6896 15.6513 33.4282 15.3899C33.1668 15.1285 32.8123 14.9817 32.4427 14.9817C32.073 14.9817 31.7185 15.1285 31.4571 15.3899C31.1958 15.6513 31.0489 16.0058 31.0489 16.3754C31.0489 16.7451 31.1958 17.0996 31.4571 17.3609C31.7185 17.6223 32.073 17.7692 32.4427 17.7692Z" fill="#69CD7F"/>
</g>
<defs>
<filter id="filter0_d_265_108" x="0.564209" y="0.49707" width="63.7568" height="65.7773" filterUnits="userSpaceOnUse" color-interpolation-filters="sRGB">
<feFlood flood-opacity="0" result="BackgroundImageFix"/>
<feColorMatrix in="SourceAlpha" type="matrix" values="0 0 0 0 0 0 0 0 0 0 0 0 0 0 0 0 0 0 127 0" result="hardAlpha"/>
<feOffset dy="16"/>
<feGaussianBlur stdDeviation="13.5"/>
<feComposite in2="hardAlpha" operator="out"/>
<feColorMatrix type="matrix" values="0 0 0 0 0 0 0 0 0 0 0 0 0 0 0 0 0 0 0.17 0"/>
<feBlend mode="normal" in2="BackgroundImageFix" result="effect1_dropShadow_265_108"/>
<feBlend mode="normal" in="SourceGraphic" in2="effect1_dropShadow_265_108" result="shape"/>
</filter>
</defs>
</svg>
