<svg width="92" height="100" viewBox="0 0 92 100" fill="none" xmlns="http://www.w3.org/2000/svg">
<g filter="url(#filter0_d_265_80)">
<path fill-rule="evenodd" clip-rule="evenodd" d="M34.7198 18.3858C37.8265 15.2791 42.0402 13.5337 46.4338 13.5337C50.8274 13.5337 55.0411 15.2791 58.1479 18.3858C61.2546 21.4926 63 25.7062 63 30.0999C63 34.4935 61.2546 38.7071 58.1479 41.8139L46.4338 53.5279L34.7198 41.8139C33.1814 40.2757 31.961 38.4494 31.1284 36.4395C30.2958 34.4296 29.8673 32.2754 29.8673 30.0999C29.8673 27.9243 30.2958 25.7701 31.1284 23.7602C31.961 21.7503 33.1814 19.9241 34.7198 18.3858ZM46.4338 34.8328C47.6891 34.8328 48.8929 34.3342 49.7805 33.4466C50.6681 32.559 51.1668 31.3551 51.1668 30.0999C51.1668 28.8446 50.6681 27.6408 49.7805 26.7532C48.8929 25.8656 47.6891 25.3669 46.4338 25.3669C45.1786 25.3669 43.9747 25.8656 43.0871 26.7532C42.1995 27.6408 41.7009 28.8446 41.7009 30.0999C41.7009 31.3551 42.1995 32.559 43.0871 33.4466C43.9747 34.3342 45.1786 34.8328 46.4338 34.8328Z" fill="#FFE071"/>
<path d="M45.7267 54.2351L46.4338 54.9422L47.1409 54.2351L58.855 42.521C62.1493 39.2267 64 34.7587 64 30.0999C64 25.441 62.1493 20.973 58.855 17.6787C55.5607 14.3844 51.0927 12.5337 46.4338 12.5337C41.775 12.5337 37.307 14.3844 34.0127 17.6787C32.3814 19.3098 31.0874 21.2462 30.2046 23.3775C29.3217 25.5087 28.8673 27.793 28.8673 30.0999C28.8673 32.4067 29.3217 34.691 30.2046 36.8222C31.0874 38.9535 32.3814 40.8899 34.0127 42.521L45.7267 54.2351ZM49.0734 32.7394C48.3734 33.4395 47.4239 33.8328 46.4338 33.8328C45.4438 33.8328 44.4943 33.4395 43.7942 32.7394C43.0942 32.0394 42.7009 31.0899 42.7009 30.0999C42.7009 29.1098 43.0942 28.1603 43.7942 27.4603C44.4943 26.7602 45.4438 26.3669 46.4338 26.3669C47.4239 26.3669 48.3734 26.7602 49.0734 27.4603C49.7735 28.1603 50.1668 29.1098 50.1668 30.0999C50.1668 31.0899 49.7735 32.0394 49.0734 32.7394Z" stroke="#FDFDFD" stroke-width="2"/>
</g>
<defs>
<filter id="filter0_d_265_80" x="0.86731" y="0.533691" width="91.1327" height="98.8226" filterUnits="userSpaceOnUse" color-interpolation-filters="sRGB">
<feFlood flood-opacity="0" result="BackgroundImageFix"/>
<feColorMatrix in="SourceAlpha" type="matrix" values="0 0 0 0 0 0 0 0 0 0 0 0 0 0 0 0 0 0 127 0" result="hardAlpha"/>
<feOffset dy="16"/>
<feGaussianBlur stdDeviation="13.5"/>
<feComposite in2="hardAlpha" operator="out"/>
<feColorMatrix type="matrix" values="0 0 0 0 0 0 0 0 0 0 0 0 0 0 0 0 0 0 0.17 0"/>
<feBlend mode="normal" in2="BackgroundImageFix" result="effect1_dropShadow_265_80"/>
<feBlend mode="normal" in="SourceGraphic" in2="effect1_dropShadow_265_80" result="shape"/>
</filter>
</defs>
</svg>
