<svg width="92" height="99" viewBox="0 0 92 99" fill="none" xmlns="http://www.w3.org/2000/svg">
<g filter="url(#filter0_d_265_81)">
<path fill-rule="evenodd" clip-rule="evenodd" d="M34.0407 18.02C37.1475 14.9132 41.3611 13.1678 45.7547 13.1678C50.1484 13.1678 54.362 14.9132 57.4688 18.02C60.5756 21.1267 62.3209 25.3404 62.3209 29.734C62.3209 34.1276 60.5756 38.3413 57.4688 41.4481L45.7547 53.1621L34.0407 41.4481C32.5023 39.9098 31.2819 38.0836 30.4494 36.0737C29.6168 34.0638 29.1882 31.9095 29.1882 29.734C29.1882 27.5585 29.6168 25.4043 30.4494 23.3943C31.2819 21.3844 32.5023 19.5582 34.0407 18.02ZM45.7547 34.467C47.01 34.467 48.2138 33.9683 49.1014 33.0807C49.989 32.1931 50.4877 30.9893 50.4877 29.734C50.4877 28.4788 49.989 27.2749 49.1014 26.3873C48.2138 25.4997 47.01 25.0011 45.7547 25.0011C44.4995 25.0011 43.2956 25.4997 42.408 26.3873C41.5204 27.2749 41.0218 28.4788 41.0218 29.734C41.0218 30.9893 41.5204 32.1931 42.408 33.0807C43.2956 33.9683 44.4995 34.467 45.7547 34.467Z" fill="#1DC190"/>
<path d="M45.0476 53.8692L45.7547 54.5763L46.4619 53.8692L58.1759 42.1552C61.4702 38.8609 63.3209 34.3928 63.3209 29.734C63.3209 25.0752 61.4702 20.6072 58.1759 17.3129C54.8816 14.0186 50.4136 12.1678 45.7547 12.1678C41.0959 12.1678 36.6279 14.0185 33.3336 17.3128C31.7023 18.9439 30.4083 20.8804 29.5255 23.0116C28.6426 25.1429 28.1882 27.4271 28.1882 29.734C28.1882 32.0409 28.6426 34.3251 29.5255 36.4564C30.4083 38.5876 31.7023 40.5241 33.3336 42.1552L45.0476 53.8692ZM48.3943 32.3736C47.6943 33.0737 46.7448 33.467 45.7547 33.467C44.7647 33.467 43.8152 33.0737 43.1152 32.3736C42.4151 31.6735 42.0218 30.7241 42.0218 29.734C42.0218 28.744 42.4151 27.7945 43.1152 27.0944C43.8152 26.3944 44.7647 26.0011 45.7547 26.0011C46.7448 26.0011 47.6943 26.3944 48.3943 27.0944C49.0944 27.7945 49.4877 28.744 49.4877 29.734C49.4877 30.7241 49.0944 31.6735 48.3943 32.3736Z" stroke="#FDFDFD" stroke-width="2"/>
</g>
<defs>
<filter id="filter0_d_265_81" x="0.188232" y="0.167847" width="91.1327" height="98.8226" filterUnits="userSpaceOnUse" color-interpolation-filters="sRGB">
<feFlood flood-opacity="0" result="BackgroundImageFix"/>
<feColorMatrix in="SourceAlpha" type="matrix" values="0 0 0 0 0 0 0 0 0 0 0 0 0 0 0 0 0 0 127 0" result="hardAlpha"/>
<feOffset dy="16"/>
<feGaussianBlur stdDeviation="13.5"/>
<feComposite in2="hardAlpha" operator="out"/>
<feColorMatrix type="matrix" values="0 0 0 0 0 0 0 0 0 0 0 0 0 0 0 0 0 0 0.17 0"/>
<feBlend mode="normal" in2="BackgroundImageFix" result="effect1_dropShadow_265_81"/>
<feBlend mode="normal" in="SourceGraphic" in2="effect1_dropShadow_265_81" result="shape"/>
</filter>
</defs>
</svg>
