<svg width="64" height="67" viewBox="0 0 64 67" fill="none" xmlns="http://www.w3.org/2000/svg">
<g filter="url(#filter0_d_265_107)">
<path fill-rule="evenodd" clip-rule="evenodd" d="M28.6194 12.9259C29.5342 12.011 30.7751 11.4971 32.0689 11.4971C33.3627 11.4971 34.6035 12.011 35.5184 12.9259C36.4332 13.8408 36.9472 15.0816 36.9472 16.3754C36.9472 17.6692 36.4332 18.9101 35.5184 19.8249L32.0689 23.2744L28.6194 19.8249C28.1663 19.3719 27.807 18.8342 27.5618 18.2423C27.3166 17.6504 27.1904 17.0161 27.1904 16.3754C27.1904 15.7348 27.3166 15.1004 27.5618 14.5085C27.807 13.9167 28.1663 13.3789 28.6194 12.9259ZM32.0689 17.7692C32.4385 17.7692 32.793 17.6223 33.0544 17.3609C33.3158 17.0996 33.4626 16.7451 33.4626 16.3754C33.4626 16.0058 33.3158 15.6513 33.0544 15.3899C32.793 15.1285 32.4385 14.9817 32.0689 14.9817C31.6992 14.9817 31.3447 15.1285 31.0834 15.3899C30.822 15.6513 30.6751 16.0058 30.6751 16.3754C30.6751 16.7451 30.822 17.0996 31.0834 17.3609C31.3447 17.6223 31.6992 17.7692 32.0689 17.7692Z" fill="#FE5252"/>
</g>
<defs>
<filter id="filter0_d_265_107" x="0.19043" y="0.49707" width="63.7568" height="65.7773" filterUnits="userSpaceOnUse" color-interpolation-filters="sRGB">
<feFlood flood-opacity="0" result="BackgroundImageFix"/>
<feColorMatrix in="SourceAlpha" type="matrix" values="0 0 0 0 0 0 0 0 0 0 0 0 0 0 0 0 0 0 127 0" result="hardAlpha"/>
<feOffset dy="16"/>
<feGaussianBlur stdDeviation="13.5"/>
<feComposite in2="hardAlpha" operator="out"/>
<feColorMatrix type="matrix" values="0 0 0 0 0 0 0 0 0 0 0 0 0 0 0 0 0 0 0.17 0"/>
<feBlend mode="normal" in2="BackgroundImageFix" result="effect1_dropShadow_265_107"/>
<feBlend mode="normal" in="SourceGraphic" in2="effect1_dropShadow_265_107" result="shape"/>
</filter>
</defs>
</svg>
