<svg width="20" height="20" viewBox="0 0 20 20" fill="none" xmlns="http://www.w3.org/2000/svg">
<path fill-rule="evenodd" clip-rule="evenodd" d="M8.06889 1.82021C6.48869 1.82021 4.97321 2.44795 3.85584 3.56532C2.73847 4.68268 2.11074 6.19816 2.11074 7.77836C2.11074 8.5608 2.26485 9.33557 2.56428 10.0584C2.8637 10.7813 3.30258 11.4381 3.85584 11.9914C4.40911 12.5447 5.06593 12.9835 5.78881 13.283C6.51168 13.5824 7.28645 13.7365 8.06889 13.7365C8.85133 13.7365 9.6261 13.5824 10.349 13.283C11.0718 12.9835 11.7287 12.5447 12.2819 11.9914C12.8352 11.4381 13.2741 10.7813 13.5735 10.0584C13.8729 9.33557 14.027 8.5608 14.027 7.77836C14.027 6.19816 13.3993 4.68268 12.2819 3.56532C11.1646 2.44795 9.64909 1.82021 8.06889 1.82021ZM2.72447 2.43394C4.1419 1.01652 6.06434 0.220215 8.06889 0.220215C10.0734 0.220215 11.9959 1.01652 13.4133 2.43394C14.8307 3.85137 15.627 5.77382 15.627 7.77836C15.627 8.77091 15.4315 9.75374 15.0517 10.6707C14.7743 11.3404 14.4026 11.9653 13.949 12.5271L19.2545 17.8326C19.5669 18.145 19.5669 18.6516 19.2545 18.964C18.9421 19.2764 18.4356 19.2764 18.1231 18.964L12.8176 13.6584C12.2559 14.1121 11.6309 14.4838 10.9613 14.7612C10.0443 15.141 9.06144 15.3365 8.06889 15.3365C7.07634 15.3365 6.09351 15.141 5.17651 14.7612C4.25951 14.3813 3.42631 13.8246 2.72447 13.1228C2.02263 12.4209 1.4659 11.5877 1.08607 10.6707C0.70624 9.75374 0.510742 8.77091 0.510742 7.77836C0.510742 5.77382 1.30704 3.85137 2.72447 2.43394Z" fill="#6B6B6B"/>
</svg>
