<svg width="12" height="12" viewBox="0 0 12 12" fill="none" xmlns="http://www.w3.org/2000/svg">
<path fill-rule="evenodd" clip-rule="evenodd" d="M4.77125 1.86529C3.90413 1.86529 3.07252 2.20975 2.45937 2.8229C1.84623 3.43605 1.50177 4.26765 1.50177 5.13477C1.50177 5.56413 1.58633 5.98928 1.75064 6.38595C1.91495 6.78262 2.15577 7.14305 2.45937 7.44665C2.76297 7.75025 3.1234 7.99107 3.52007 8.15538C3.91674 8.31969 4.34189 8.40425 4.77125 8.40425C5.2006 8.40425 5.62575 8.31969 6.02242 8.15538C6.4191 7.99107 6.77952 7.75025 7.08312 7.44665C7.38672 7.14305 7.62755 6.78262 7.79185 6.38595C7.95616 5.98928 8.04073 5.56413 8.04073 5.13477C8.04073 4.26765 7.69627 3.43605 7.08312 2.8229C6.46997 2.20975 5.63837 1.86529 4.77125 1.86529ZM1.83854 2.20207C2.61635 1.42427 3.67127 0.987305 4.77125 0.987305C5.87122 0.987305 6.92615 1.42427 7.70395 2.20207C8.48175 2.97987 8.91872 4.0348 8.91872 5.13477C8.91872 5.67943 8.81144 6.21875 8.60301 6.72194C8.4508 7.0894 8.24683 7.43233 7.99789 7.74059L10.9093 10.652C11.0807 10.8234 11.0807 11.1014 10.9093 11.2728C10.7378 11.4442 10.4599 11.4442 10.2884 11.2728L7.37706 8.36142C7.06881 8.61036 6.72587 8.81433 6.35841 8.96653C5.85522 9.17496 5.3159 9.28224 4.77125 9.28224C4.22659 9.28224 3.68727 9.17496 3.18408 8.96653C2.68089 8.7581 2.22367 8.4526 1.83854 8.06748C1.45342 7.68235 1.14792 7.22513 0.939487 6.72194C0.731057 6.21875 0.623779 5.67943 0.623779 5.13477C0.623779 4.0348 1.06074 2.97987 1.83854 2.20207Z" fill="black"/>
</svg>
