<svg width="17" height="17" viewBox="0 0 17 17" fill="none" xmlns="http://www.w3.org/2000/svg">
<path d="M7.02116 2.12472C7.37616 0.661388 9.45783 0.661388 9.81283 2.12472C9.86609 2.34455 9.97051 2.5487 10.1176 2.72055C10.2647 2.89241 10.4502 3.0271 10.6592 3.11368C10.8682 3.20025 11.0946 3.23626 11.3201 3.21878C11.5457 3.20129 11.7639 3.13081 11.957 3.01305C13.2428 2.22972 14.7153 3.70139 13.932 4.98805C13.8144 5.1811 13.744 5.39917 13.7266 5.62453C13.7091 5.8499 13.7451 6.0762 13.8316 6.28504C13.9181 6.49388 14.0526 6.67937 14.2243 6.82643C14.3959 6.97349 14.5999 7.07798 14.8195 7.13139C16.2828 7.48639 16.2828 9.56805 14.8195 9.92305C14.5997 9.97632 14.3955 10.0807 14.2237 10.2278C14.0518 10.3749 13.9171 10.5605 13.8305 10.7694C13.744 10.9784 13.7079 11.2049 13.7254 11.4304C13.7429 11.6559 13.8134 11.8741 13.9312 12.0672C14.7145 13.3531 13.2428 14.8256 11.9562 14.0422C11.7631 13.9246 11.545 13.8543 11.3197 13.8368C11.0943 13.8194 10.868 13.8554 10.6592 13.9418C10.4503 14.0283 10.2648 14.1628 10.1178 14.3345C9.97072 14.5062 9.86624 14.7101 9.81283 14.9297C9.45783 16.3931 7.37616 16.3931 7.02116 14.9297C6.96789 14.7099 6.86347 14.5057 6.7164 14.3339C6.56933 14.162 6.38375 14.0273 6.17478 13.9408C5.96581 13.8542 5.73935 13.8182 5.51384 13.8357C5.28832 13.8531 5.07012 13.9236 4.87699 14.0414C3.59116 14.8247 2.11866 13.3531 2.90199 12.0664C3.01958 11.8733 3.08995 11.6553 3.1074 11.4299C3.12484 11.2045 3.08886 10.9782 3.00239 10.7694C2.91591 10.5606 2.78138 10.3751 2.60972 10.228C2.43806 10.0809 2.23413 9.97647 2.01449 9.92305C0.551159 9.56805 0.551159 7.48639 2.01449 7.13139C2.23432 7.07812 2.43847 6.9737 2.61033 6.82663C2.78218 6.67955 2.91687 6.49398 3.00345 6.28501C3.09002 6.07604 3.12603 5.84958 3.10855 5.62407C3.09106 5.39855 3.02058 5.18035 2.90283 4.98722C2.11949 3.70139 3.59116 2.22889 4.87783 3.01222C5.70783 3.51889 6.79116 3.07055 7.02116 2.12472Z" stroke="#6B6B6B" stroke-width="1.7" stroke-linecap="round" stroke-linejoin="round"/>
<path d="M10.917 8.52722C10.917 9.19026 10.6536 9.82615 10.1848 10.295C9.71592 10.7638 9.08003 11.0272 8.41699 11.0272C7.75395 11.0272 7.11807 10.7638 6.64922 10.295C6.18038 9.82615 5.91699 9.19026 5.91699 8.52722C5.91699 7.86418 6.18038 7.2283 6.64922 6.75945C7.11807 6.29061 7.75395 6.02722 8.41699 6.02722C9.08003 6.02722 9.71592 6.29061 10.1848 6.75945C10.6536 7.2283 10.917 7.86418 10.917 8.52722V8.52722Z" stroke="#6B6B6B" stroke-width="2" stroke-linecap="round" stroke-linejoin="round"/>
</svg>
