<svg width="20" height="20" viewBox="0 0 20 20" fill="none" xmlns="http://www.w3.org/2000/svg">
<path fill-rule="evenodd" clip-rule="evenodd" d="M5.19995 3.31486C4.84725 3.5695 4.51322 3.85339 4.20168 4.16493C3.09549 5.27111 2.338 6.6608 1.99992 8.16321H2.99995C3.74256 8.16321 4.45475 8.45821 4.97985 8.98331C5.50495 9.50841 5.79995 10.2206 5.79995 10.9632V11.9632C5.79995 12.2815 5.92638 12.5867 6.15142 12.8117C6.37647 13.0368 6.68169 13.1632 6.99995 13.1632C7.74256 13.1632 8.45475 13.4582 8.97985 13.9833C9.50495 14.5084 9.79995 15.2206 9.79995 15.9632V18.1608C9.86657 18.1624 9.93324 18.1632 9.99995 18.1632C10.7451 18.1632 11.4851 18.0617 12.2 17.8626V15.9632C12.2 15.2206 12.495 14.5084 13.0201 13.9833C13.5452 13.4582 14.2573 13.1632 15 13.1632H17.5498C17.5585 13.1426 17.5672 13.1219 17.5758 13.1012C17.9879 12.1063 18.2 11.04 18.2 9.96321C18.2 8.85298 17.9748 7.76596 17.5498 6.76321H17C16.6817 6.76321 16.3765 6.88964 16.1514 7.11468C15.9264 7.33972 15.8 7.64495 15.8 7.96321C15.8 8.70581 15.505 9.418 14.9798 9.94311C14.4547 10.4682 13.7426 10.7632 13 10.7632C12.2573 10.7632 11.5452 10.4682 11.0201 9.94311C10.495 9.418 10.2 8.70581 10.2 7.96321C10.2 7.64495 10.0735 7.33972 9.84848 7.11468C9.62344 6.88964 9.31821 6.76321 8.99995 6.76321H8.49995C7.62474 6.76321 6.78537 6.41553 6.1665 5.79666C5.54763 5.17779 5.19995 4.33842 5.19995 3.46321V3.31486ZM5.58584 1.21359C4.66438 1.67843 3.81376 2.2901 3.0703 3.03356C1.49985 4.60402 0.517447 6.6526 0.264822 8.83718C0.261053 8.86099 0.258335 8.88516 0.256717 8.90962C0.219064 9.25793 0.199951 9.60958 0.199951 9.96321C0.199951 11.2502 0.453436 12.5245 0.945932 13.7135C1.43843 14.9025 2.16029 15.9828 3.0703 16.8929C3.98032 17.8029 5.06066 18.5247 6.24965 19.0172C7.09006 19.3653 7.97312 19.594 8.87313 19.6982C8.89745 19.7021 8.92212 19.7049 8.94712 19.7065C9.29612 19.7442 9.64757 19.7632 9.99995 19.7632C11.0906 19.7632 12.1721 19.5812 13.2003 19.2259C13.2455 19.2143 13.2892 19.1987 13.3309 19.1798C13.4718 19.1288 13.6116 19.0747 13.7502 19.0172C14.9392 18.5247 16.0196 17.8029 16.9296 16.8929C17.67 16.1524 18.2859 15.2992 18.755 14.3665C18.7734 14.3351 18.7897 14.3022 18.8037 14.2682C18.8928 14.0862 18.9762 13.9012 19.054 13.7135C19.5465 12.5245 19.7999 11.2502 19.7999 9.96321C19.7999 8.45683 19.4531 6.98621 18.8037 5.6581C18.7897 5.62417 18.7734 5.59141 18.7551 5.56002C18.2896 4.63435 17.676 3.77996 16.9296 3.03356C15.0917 1.19571 12.5991 0.163208 9.99995 0.163208C8.49804 0.163208 7.03168 0.507972 5.70667 1.15367C5.66453 1.17029 5.62413 1.19038 5.58584 1.21359ZM6.79995 2.41337V3.46321C6.79995 3.91408 6.97906 4.34648 7.29787 4.66529C7.61668 4.9841 8.04908 5.16321 8.49995 5.16321H8.99995C9.74256 5.16321 10.4547 5.45821 10.9798 5.98331C11.505 6.50841 11.8 7.2206 11.8 7.96321C11.8 8.28147 11.9264 8.58669 12.1514 8.81174C12.3765 9.03678 12.6817 9.16321 13 9.16321C13.3182 9.16321 13.6234 9.03678 13.8485 8.81174C14.0735 8.58669 14.2 8.28147 14.2 7.96321C14.2 7.2206 14.495 6.50841 15.0201 5.98331C15.4651 5.53827 16.0445 5.25852 16.6629 5.18355C16.4045 4.82335 16.1158 4.48246 15.7982 4.16493C14.2604 2.62713 12.1747 1.76321 9.99995 1.76321C8.88972 1.76321 7.80271 1.98836 6.79995 2.41337ZM16.6483 14.7632H15C14.6817 14.7632 14.3765 14.8896 14.1514 15.1147C13.9264 15.3397 13.8 15.6449 13.8 15.9632V17.2296C14.5354 16.845 15.2094 16.3503 15.7982 15.7615C16.1085 15.4512 16.3926 15.1173 16.6483 14.7632ZM8.19995 17.9632V15.9632C8.19995 15.6449 8.07352 15.3397 7.84848 15.1147C7.62344 14.8896 7.31821 14.7632 6.99995 14.7632C6.25734 14.7632 5.54515 14.4682 5.02005 13.9431C4.49495 13.418 4.19995 12.7058 4.19995 11.9632V10.9632C4.19995 10.6449 4.07352 10.3397 3.84848 10.1147C3.62344 9.88964 3.31821 9.76321 2.99995 9.76321H1.80239C1.80077 9.82978 1.79995 9.89645 1.79995 9.96321C1.79995 11.04 2.01205 12.1063 2.42414 13.1012C2.83623 14.0961 3.44023 15 4.20168 15.7615C4.96312 16.5229 5.86708 17.1269 6.86195 17.539C7.29604 17.7188 7.74372 17.8606 8.19995 17.9632Z" fill="#6B6B6B"/>
</svg>
